<svg width="17" height="17" viewBox="0 0 17 17" fill="none" xmlns="http://www.w3.org/2000/svg">
<path fill-rule="evenodd" clip-rule="evenodd" d="M8.49966 6.82925C7.55758 6.82925 6.79187 7.59567 6.79187 8.53775C6.79187 9.47913 7.55758 10.2448 8.49966 10.2448C9.44175 10.2448 10.2082 9.47913 10.2082 8.53775C10.2082 7.59567 9.44175 6.82925 8.49966 6.82925M8.49966 11.3073C6.97179 11.3073 5.72937 10.0649 5.72937 8.53775C5.72937 7.00988 6.97179 5.76675 8.49966 5.76675C10.0275 5.76675 11.2707 7.00988 11.2707 8.53775C11.2707 10.0649 10.0275 11.3073 8.49966 11.3073" fill="#143471"/>
<mask id="mask0_2197_3453" style="mask-type:alpha" maskUnits="userSpaceOnUse" x="1" y="2" width="15" height="13">
<path fill-rule="evenodd" clip-rule="evenodd" d="M1.41675 2.83347H15.5833V14.2412H1.41675V2.83347Z" fill="white"/>
</mask>
<g mask="url(#mask0_2197_3453)">
<path fill-rule="evenodd" clip-rule="evenodd" d="M2.52865 8.53719C3.84615 11.4477 6.06536 13.1782 8.4999 13.1789C10.9344 13.1782 13.1537 11.4477 14.4712 8.53719C13.1537 5.62736 10.9344 3.8969 8.4999 3.89619C6.06607 3.8969 3.84615 5.62736 2.52865 8.53719V8.53719ZM8.50132 14.2414H8.49849H8.49778C5.56811 14.2393 2.93736 12.1858 1.45978 8.74686C1.4024 8.61298 1.4024 8.4614 1.45978 8.32752C2.93736 4.88927 5.56882 2.83582 8.49778 2.83369C8.4992 2.83298 8.4992 2.83298 8.4999 2.83369C8.50132 2.83298 8.50132 2.83298 8.50203 2.83369C11.4317 2.83582 14.0624 4.88927 15.54 8.32752C15.5981 8.4614 15.5981 8.61298 15.54 8.74686C14.0632 12.1858 11.4317 14.2393 8.50203 14.2414H8.50132Z" fill="#143471"/>
</g>
</svg>
